<svg width='24' height='24' viewBox='0 0 24 24' xmlns='http://www.w3.org/2000/svg' xmlns:xlink='http://www.w3.org/1999/xlink'><rect width='24' height='24' stroke='none' fill='#000000' opacity='0'/>


<g transform="matrix(0.42 0 0 0.42 12 12)" >
<g style="" >
<g transform="matrix(1 0 0 1 0 -6)" >
<linearGradient id="SVGID_a7D5hHlCv2axllaI0kWpTa_1" gradientUnits="userSpaceOnUse" gradientTransform="matrix(1 0 0 1 0 0)" x1="24" y1="24.412" x2="24" y2="13.408">
<stop offset="0%" style="stop-color:rgb(50,189,239);stop-opacity: 1"/>
<stop offset="100%" style="stop-color:rgb(30,162,228);stop-opacity: 1"/>
</linearGradient>
<path style="stroke: none; stroke-width: 1; stroke-dasharray: none; stroke-linecap: butt; stroke-dashoffset: 0; stroke-linejoin: miter; stroke-miterlimit: 4; fill: url(#SVGID_a7D5hHlCv2axllaI0kWpTa_1); fill-rule: nonzero; opacity: 1;" transform=" translate(-24, -18)" d="M 34.41 21 L 13.59 21 L 13.97 15.969999999999999 C 13.99 15.43 14.430000000000001 14.999999999999998 14.97 14.999999999999998 L 33.03 14.999999999999998 C 33.57 14.999999999999998 34.01 15.429999999999998 34.03 15.969999999999999 L 34.41 21 z" stroke-linecap="round" />
</g>
<g transform="matrix(1 0 0 1 0 -14.5)" >
<linearGradient id="SVGID_a7D5hHlCv2axllaI0kWpTb_2" gradientUnits="userSpaceOnUse" gradientTransform="matrix(1 0 0 1 0 0)" x1="24" y1="0.265" x2="24" y2="17.895">
<stop offset="0%" style="stop-color:rgb(136,144,151);stop-opacity: 1"/>
<stop offset="33.1%" style="stop-color:rgb(132,140,148);stop-opacity: 1"/>
<stop offset="66.9%" style="stop-color:rgb(120,130,139);stop-opacity: 1"/>
<stop offset="100%" style="stop-color:rgb(100,113,124);stop-opacity: 1"/>
</linearGradient>
<path style="stroke: none; stroke-width: 1; stroke-dasharray: none; stroke-linecap: butt; stroke-dashoffset: 0; stroke-linejoin: miter; stroke-miterlimit: 4; fill: url(#SVGID_a7D5hHlCv2axllaI0kWpTb_2); fill-rule: nonzero; opacity: 1;" transform=" translate(-24, -9.5)" d="M 24 4 L 24 4 C 19.029 4 15 8.029 15 13 L 15 14 C 15 14.552 15.448 15 16 15 L 32 15 C 32.552 15 33 14.552 33 14 L 33 13 C 33 8.029 28.971 4 24 4 z" stroke-linecap="round" />
</g>
<g transform="matrix(1 0 0 1 -3 -16)" >
<circle style="stroke: none; stroke-width: 1; stroke-dasharray: none; stroke-linecap: butt; stroke-dashoffset: 0; stroke-linejoin: miter; stroke-miterlimit: 4; fill: rgb(88,97,105); fill-rule: nonzero; opacity: 1;" cx="0" cy="0" r="1" />
</g>
<g transform="matrix(1 0 0 1 3 -16)" >
<circle style="stroke: none; stroke-width: 1; stroke-dasharray: none; stroke-linecap: butt; stroke-dashoffset: 0; stroke-linejoin: miter; stroke-miterlimit: 4; fill: rgb(88,97,105); fill-rule: nonzero; opacity: 1;" cx="0" cy="0" r="1" />
</g>
<g transform="matrix(1 0 0 1 0 -6)" >
<linearGradient id="SVGID_a7D5hHlCv2axllaI0kWpTc_3" gradientUnits="userSpaceOnUse" gradientTransform="matrix(1 0 0 1 0 0)" x1="24" y1="24.823" x2="24" y2="12.353">
<stop offset="7.000000000000001%" style="stop-color:rgb(168,226,247);stop-opacity: 1"/>
<stop offset="100%" style="stop-color:rgb(71,193,255);stop-opacity: 1"/>
</linearGradient>
<path style="stroke: none; stroke-width: 1; stroke-dasharray: none; stroke-linecap: butt; stroke-dashoffset: 0; stroke-linejoin: miter; stroke-miterlimit: 4; fill: url(#SVGID_a7D5hHlCv2axllaI0kWpTc_3); fill-rule: nonzero; opacity: 1;" transform=" translate(-24, -18)" d="M 29.37 21 L 18.63 21 L 19 15.97 C 19.02 15.43 19.46 15 20 15 L 28 15 C 28.54 15 28.98 15.43 29 15.97 L 29.37 21 z" stroke-linecap="round" />
</g>
<g transform="matrix(1 0 0 1 8.47 8.5)" >
<linearGradient id="SVGID_a7D5hHlCv2axllaI0kWpTd_4" gradientUnits="userSpaceOnUse" gradientTransform="matrix(1 0 0 1 0 0)" x1="32.466" y1="16.765" x2="32.466" y2="29.178">
<stop offset="0%" style="stop-color:rgb(163,79,39);stop-opacity: 1"/>
<stop offset="100%" style="stop-color:rgb(139,56,23);stop-opacity: 1"/>
</linearGradient>
<path style="stroke: none; stroke-width: 1; stroke-dasharray: none; stroke-linecap: butt; stroke-dashoffset: 0; stroke-linejoin: miter; stroke-miterlimit: 4; fill: url(#SVGID_a7D5hHlCv2axllaI0kWpTd_4); fill-rule: nonzero; opacity: 1;" transform=" translate(-32.47, -32.5)" d="M 36 41.93 C 36.04 43.06 35.13 44 34 44 L 28.93 44 C 30.06 44 30.97 43.06 30.93 41.93 L 29.37 21 L 34.410000000000004 21 L 36 41.93 z" stroke-linecap="round" />
</g>
<g transform="matrix(1 0 0 1 0 8.5)" >
<linearGradient id="SVGID_a7D5hHlCv2axllaI0kWpTe_5" gradientUnits="userSpaceOnUse" gradientTransform="matrix(1 0 0 1 0 0)" x1="24" y1="19.765" x2="24" y2="48.298">
<stop offset="0%" style="stop-color:rgb(163,79,39);stop-opacity: 1"/>
<stop offset="100%" style="stop-color:rgb(139,56,23);stop-opacity: 1"/>
</linearGradient>
<path style="stroke: none; stroke-width: 1; stroke-dasharray: none; stroke-linecap: butt; stroke-dashoffset: 0; stroke-linejoin: miter; stroke-miterlimit: 4; fill: url(#SVGID_a7D5hHlCv2axllaI0kWpTe_5); fill-rule: nonzero; opacity: 1;" transform=" translate(-24, -32.5)" d="M 30.93 41.93 C 30.97 43.06 30.06 44 28.93 44 L 19.07 44 C 17.94 44 17.03 43.06 17.07 41.93 L 18.63 21 L 29.369999999999997 21 L 30.93 41.93 z" stroke-linecap="round" />
</g>
<g transform="matrix(1 0 0 1 -8.47 8.5)" >
<linearGradient id="SVGID_a7D5hHlCv2axllaI0kWpTf_6" gradientUnits="userSpaceOnUse" gradientTransform="matrix(1 0 0 1 0 0)" x1="15.534" y1="16.765" x2="15.534" y2="29.178">
<stop offset="0%" style="stop-color:rgb(163,79,39);stop-opacity: 1"/>
<stop offset="100%" style="stop-color:rgb(139,56,23);stop-opacity: 1"/>
</linearGradient>
<path style="stroke: none; stroke-width: 1; stroke-dasharray: none; stroke-linecap: butt; stroke-dashoffset: 0; stroke-linejoin: miter; stroke-miterlimit: 4; fill: url(#SVGID_a7D5hHlCv2axllaI0kWpTf_6); fill-rule: nonzero; opacity: 1;" transform=" translate(-15.53, -32.5)" d="M 19.07 44 L 14 44 C 12.870000000000001 44 11.96 43.06 12 41.93 L 13.59 21 L 18.63 21 L 17.07 41.93 C 17.03 43.06 17.94 44 19.07 44 z" stroke-linecap="round" />
</g>
<g transform="matrix(1 0 0 1 -3 16)" >
<circle style="stroke: none; stroke-width: 1; stroke-dasharray: none; stroke-linecap: butt; stroke-dashoffset: 0; stroke-linejoin: miter; stroke-miterlimit: 4; fill: rgb(184,85,21); fill-rule: nonzero; opacity: 1;" cx="0" cy="0" r="1" />
</g>
<g transform="matrix(1 0 0 1 3 4)" >
<circle style="stroke: none; stroke-width: 1; stroke-dasharray: none; stroke-linecap: butt; stroke-dashoffset: 0; stroke-linejoin: miter; stroke-miterlimit: 4; fill: rgb(184,85,21); fill-rule: nonzero; opacity: 1;" cx="0" cy="0" r="1" />
</g>
<g transform="matrix(1 0 0 1 -1 7)" >
<circle style="stroke: none; stroke-width: 1; stroke-dasharray: none; stroke-linecap: butt; stroke-dashoffset: 0; stroke-linejoin: miter; stroke-miterlimit: 4; fill: rgb(184,85,21); fill-rule: nonzero; opacity: 1;" cx="0" cy="0" r="1" />
</g>
</g>
</g>
</svg>