<svg width='24' height='24' viewBox='0 0 24 24' xmlns='http://www.w3.org/2000/svg' xmlns:xlink='http://www.w3.org/1999/xlink'><rect width='24' height='24' stroke='none' fill='#000000' opacity='0'/>


<g transform="matrix(0.42 0 0 0.42 12 12)" >
<g style="" >
<g transform="matrix(1 0 0 1 8.38 2.53)" >
<linearGradient id="SVGID_tsSu~Ba0ZRN1foSUgg_Sta_1" gradientUnits="userSpaceOnUse" gradientTransform="matrix(1 0 0 1 0 0)" x1="32.375" y1="9.758" x2="32.375" y2="53.428">
<stop offset="0%" style="stop-color:rgb(42,164,244);stop-opacity: 1"/>
<stop offset="100%" style="stop-color:rgb(0,122,217);stop-opacity: 1"/>
</linearGradient>
<path style="stroke: none; stroke-width: 1; stroke-dasharray: none; stroke-linecap: butt; stroke-dashoffset: 0; stroke-linejoin: miter; stroke-miterlimit: 4; fill: url(#SVGID_tsSu~Ba0ZRN1foSUgg_Sta_1); fill-rule: nonzero; opacity: 1;" transform=" translate(-32.38, -26.53)" d="M 37 13.567 L 37 43.037 C 37 44.137 36.1 45.037 35 45.037 L 28 45.037 L 27.75 13.016999999999996 L 29.75 11.416999999999996 L 34 8.016999999999996 L 36.71 12.536999999999995 C 36.800000000000004 12.686999999999996 36.87 12.846999999999996 36.92 13.016999999999996 C 36.97 13.197 37 13.377 37 13.567 z" stroke-linecap="round" />
</g>
<g transform="matrix(1 0 0 1 -1.5 0.52)" >
<linearGradient id="SVGID_tsSu~Ba0ZRN1foSUgg_Stb_2" gradientUnits="userSpaceOnUse" gradientTransform="matrix(1 0 0 1 0 0)" x1="14.332" y1="1.302" x2="30.684" y2="46.949">
<stop offset="0%" style="stop-color:rgb(50,189,239);stop-opacity: 1"/>
<stop offset="100%" style="stop-color:rgb(30,162,228);stop-opacity: 1"/>
</linearGradient>
<path style="stroke: none; stroke-width: 1; stroke-dasharray: none; stroke-linecap: butt; stroke-dashoffset: 0; stroke-linejoin: miter; stroke-miterlimit: 4; fill: url(#SVGID_tsSu~Ba0ZRN1foSUgg_Stb_2); fill-rule: nonzero; opacity: 1;" transform=" translate(-22.5, -24.52)" d="M 34 5.017 L 34 8.017 L 31.28 12.547 C 31.19 12.697000000000001 31.130000000000003 12.857000000000001 31.080000000000002 13.017000000000001 C 31.03 13.197000000000001 31.000000000000004 13.377 31.000000000000004 13.567000000000002 L 31.000000000000004 43.017 C 31.000000000000004 44.117000000000004 30.100000000000005 45.017 29.000000000000004 45.017 L 13 45.017 C 11.9 45.017 11 44.117000000000004 11 43.017 L 11 13.717000000000002 C 11 13.477000000000002 11.04 13.237000000000002 11.13 13.017000000000003 C 11.200000000000001 12.817000000000004 11.3 12.637000000000002 11.440000000000001 12.467000000000002 L 15 8.017 L 15 5.0169999999999995 C 15 4.467 15.45 4.0169999999999995 16 4.0169999999999995 L 33 4.0169999999999995 C 33.55 4.017 34 4.467 34 5.017 z" stroke-linecap="round" />
</g>
<g transform="matrix(1 0 0 1 -1.44 -13.48)" >
<linearGradient id="SVGID_tsSu~Ba0ZRN1foSUgg_Stc_3" gradientUnits="userSpaceOnUse" gradientTransform="matrix(1 0 0 1 0 0)" x1="22.565" y1="5.605" x2="22.565" y2="20.139">
<stop offset="0%" style="stop-color:rgb(168,226,247);stop-opacity: 1"/>
<stop offset="100%" style="stop-color:rgb(71,193,255);stop-opacity: 1"/>
</linearGradient>
<path style="stroke: none; stroke-width: 1; stroke-dasharray: none; stroke-linecap: butt; stroke-dashoffset: 0; stroke-linejoin: miter; stroke-miterlimit: 4; fill: url(#SVGID_tsSu~Ba0ZRN1foSUgg_Stc_3); fill-rule: nonzero; opacity: 1;" transform=" translate(-22.56, -10.52)" d="M 34 8.017 L 31.28 12.547 C 31.19 12.697000000000001 31.130000000000003 12.857000000000001 31.080000000000002 13.017000000000001 L 11.13 13.017000000000001 C 11.200000000000001 12.817000000000002 11.3 12.637 11.440000000000001 12.467 L 15 8.017 L 34 8.017 z" stroke-linecap="round" />
</g>
<g transform="matrix(1 0 0 1 -8.5 -0.48)" >
<linearGradient id="SVGID_tsSu~Ba0ZRN1foSUgg_Std_4" gradientUnits="userSpaceOnUse" gradientTransform="matrix(1 0 0 1 -15.5 -23.52)" x1="15.5" y1="25.149" x2="15.5" y2="13.941">
<stop offset="0.2%" style="stop-color:rgb(69,69,69);stop-opacity: 1"/>
<stop offset="1.3%" style="stop-color:rgb(70,70,70);stop-opacity: 1"/>
<stop offset="87.5%" style="stop-color:rgb(98,98,98);stop-opacity: 1"/>
<stop offset="100%" style="stop-color:rgb(109,109,109);stop-opacity: 1"/>
</linearGradient>
<circle style="stroke: none; stroke-width: 1; stroke-dasharray: none; stroke-linecap: butt; stroke-dashoffset: 0; stroke-linejoin: miter; stroke-miterlimit: 4; fill: url(#SVGID_tsSu~Ba0ZRN1foSUgg_Std_4); fill-rule: nonzero; opacity: 1;" cx="0" cy="0" r="2.5" />
</g>
<g transform="matrix(1 0 0 1 2.5 -0.48)" >
<linearGradient id="SVGID_tsSu~Ba0ZRN1foSUgg_Ste_5" gradientUnits="userSpaceOnUse" gradientTransform="matrix(1 0 0 1 -26.5 -23.52)" x1="26.5" y1="25.149" x2="26.5" y2="13.941">
<stop offset="0.2%" style="stop-color:rgb(69,69,69);stop-opacity: 1"/>
<stop offset="1.3%" style="stop-color:rgb(70,70,70);stop-opacity: 1"/>
<stop offset="87.5%" style="stop-color:rgb(98,98,98);stop-opacity: 1"/>
<stop offset="100%" style="stop-color:rgb(109,109,109);stop-opacity: 1"/>
</linearGradient>
<circle style="stroke: none; stroke-width: 1; stroke-dasharray: none; stroke-linecap: butt; stroke-dashoffset: 0; stroke-linejoin: miter; stroke-miterlimit: 4; fill: url(#SVGID_tsSu~Ba0ZRN1foSUgg_Ste_5); fill-rule: nonzero; opacity: 1;" cx="0" cy="0" r="2.5" />
</g>
<g transform="matrix(1 0 0 1 -9 -0.98)" >
<linearGradient id="SVGID_tsSu~Ba0ZRN1foSUgg_Stf_6" gradientUnits="userSpaceOnUse" gradientTransform="matrix(1 0 0 1 -15 -23.02)" x1="15" y1="20.252" x2="15" y2="25.899">
<stop offset="0%" style="stop-color:rgb(249,249,249);stop-opacity: 1"/>
<stop offset="100%" style="stop-color:rgb(194,200,204);stop-opacity: 1"/>
</linearGradient>
<circle style="stroke: none; stroke-width: 1; stroke-dasharray: none; stroke-linecap: butt; stroke-dashoffset: 0; stroke-linejoin: miter; stroke-miterlimit: 4; fill: url(#SVGID_tsSu~Ba0ZRN1foSUgg_Stf_6); fill-rule: nonzero; opacity: 1;" cx="0" cy="0" r="1" />
</g>
<g transform="matrix(1 0 0 1 2 -0.98)" >
<linearGradient id="SVGID_tsSu~Ba0ZRN1foSUgg_Stg_7" gradientUnits="userSpaceOnUse" gradientTransform="matrix(1 0 0 1 -26 -23.02)" x1="26" y1="20.252" x2="26" y2="25.899">
<stop offset="0%" style="stop-color:rgb(249,249,249);stop-opacity: 1"/>
<stop offset="100%" style="stop-color:rgb(194,200,204);stop-opacity: 1"/>
</linearGradient>
<circle style="stroke: none; stroke-width: 1; stroke-dasharray: none; stroke-linecap: butt; stroke-dashoffset: 0; stroke-linejoin: miter; stroke-miterlimit: 4; fill: url(#SVGID_tsSu~Ba0ZRN1foSUgg_Stg_7); fill-rule: nonzero; opacity: 1;" cx="0" cy="0" r="1" />
</g>
<g transform="matrix(1 0 0 1 -12 6.02)" >
<path style="stroke: none; stroke-width: 1; stroke-dasharray: none; stroke-linecap: butt; stroke-dashoffset: 0; stroke-linejoin: miter; stroke-miterlimit: 4; fill: rgb(240,156,162); fill-rule: nonzero; opacity: 1;" transform=" translate(-12, -30.02)" d="M 13 30.02 C 13 31.12 12.1 32.019999999999996 11 32.019999999999996 L 11 28.019999999999996 C 12.1 28.02 13 28.91 13 30.02 z" stroke-linecap="round" />
</g>
<g transform="matrix(1 0 0 1 6 6.02)" >
<path style="stroke: none; stroke-width: 1; stroke-dasharray: none; stroke-linecap: butt; stroke-dashoffset: 0; stroke-linejoin: miter; stroke-miterlimit: 4; fill: rgb(240,156,162); fill-rule: nonzero; opacity: 1;" transform=" translate(-30, -30.02)" d="M 31 28.02 L 31 32.019999999999996 C 29.9 32.019999999999996 29 31.119999999999997 29 30.019999999999996 C 29 28.91 29.9 28.02 31 28.02 z" stroke-linecap="round" />
</g>
<g transform="matrix(1 0 0 1 -3 6.52)" >
<linearGradient id="SVGID_tsSu~Ba0ZRN1foSUgg_Sth_8" gradientUnits="userSpaceOnUse" gradientTransform="matrix(1 0 0 1 0 0)" x1="21" y1="33.37" x2="21" y2="21.63">
<stop offset="0.2%" style="stop-color:rgb(69,69,69);stop-opacity: 1"/>
<stop offset="1.3%" style="stop-color:rgb(70,70,70);stop-opacity: 1"/>
<stop offset="87.5%" style="stop-color:rgb(98,98,98);stop-opacity: 1"/>
<stop offset="100%" style="stop-color:rgb(109,109,109);stop-opacity: 1"/>
</linearGradient>
<path style="stroke: none; stroke-width: 1; stroke-dasharray: none; stroke-linecap: butt; stroke-dashoffset: 0; stroke-linejoin: miter; stroke-miterlimit: 4; fill: url(#SVGID_tsSu~Ba0ZRN1foSUgg_Sth_8); fill-rule: nonzero; opacity: 1;" transform=" translate(-21, -30.52)" d="M 21 33.017 C 18.794 33.017 17 31.223000000000003 17 29.017000000000003 C 17 28.464000000000002 17.447 28.017000000000003 18 28.017000000000003 C 18.553 28.017000000000003 19 28.464000000000002 19 29.017000000000003 C 19 30.120000000000005 19.897 31.017000000000003 21 31.017000000000003 C 22.103 31.017000000000003 23 30.120000000000005 23 29.017000000000003 C 23 28.464000000000002 23.447 28.017000000000003 24 28.017000000000003 C 24.553 28.017000000000003 25 28.464000000000002 25 29.017000000000003 C 25 31.223 23.206 33.017 21 33.017 z" stroke-linecap="round" />
</g>
</g>
</g>
</svg>