<svg width='24' height='24' viewBox='0 0 24 24' xmlns='http://www.w3.org/2000/svg' xmlns:xlink='http://www.w3.org/1999/xlink'><rect width='24' height='24' stroke='none' fill='#000000' opacity='0'/>


<g transform="matrix(0.42 0 0 0.42 12 12)" >
<g style="" >
<g transform="matrix(1 0 0 1 -0.04 1.66)" >
<linearGradient id="SVGID_wqXjoJct_Smz2qHhCrpj5a_1" gradientUnits="userSpaceOnUse" gradientTransform="matrix(1 0 0 1 0 0)" x1="-0.639" y1="29.716" x2="56.55" y2="20.503">
<stop offset="0.6%" style="stop-color:rgb(242,195,186);stop-opacity: 1"/>
<stop offset="100%" style="stop-color:rgb(241,156,139);stop-opacity: 1"/>
</linearGradient>
<path style="stroke: none; stroke-width: 1; stroke-dasharray: none; stroke-linecap: butt; stroke-dashoffset: 0; stroke-linejoin: miter; stroke-miterlimit: 4; fill: url(#SVGID_wqXjoJct_Smz2qHhCrpj5a_1); fill-rule: nonzero; opacity: 1;" transform=" translate(-23.96, -25.66)" d="M 47.235 24.888 L 47.235 24.888 L 47.235 19.548000000000002 L 41.778999999999996 20.563000000000002 C 41.03972155392996 19.94488954924853 40.39222297538876 19.224661021167602 39.855999999999995 18.424000000000007 L 39.004999999999995 17.080000000000002 C 38.08467614066029 15.918731018152892 36.75601217455987 15.152290404598867 35.28999999999999 14.937000000000001 L 27.389999999999993 13.270000000000001 C 26.456114959613423 13.05318239531593 25.47469032993801 13.20089681661912 24.645999999999994 13.683000000000002 C 22.788814065308838 14.889269594884931 21.198173291413493 16.462894528237964 19.971999999999994 18.307000000000002 L 16.401999999999994 23.954 C 16.04948446850045 24.50076395294947 15.654605659169981 25.01902149271427 15.220999999999993 25.504 L 0.673 28.208 L 0.673 33.56 C 0.7035045245201004 33.698189362834405 0.7422402398806043 33.83443222375756 0.7890000000000006 33.968 C 1.3416962967892254 35.25464172803029 2.35638383893285 36.28752514381995 3.6330000000000013 36.86300000000001 C 4.812886262291109 37.44597050770032 6.106268186966828 37.76308631873853 7.422000000000001 37.79200000000001 L 14.786000000000001 38.07200000000001 C 23.04892240784872 38.44881943314373 31.307140640274426 37.23167947412193 39.11 34.487 C 42.952 33.072 45.574 30.793000000000003 46.35 28.200000000000003 L 47.179 25.651000000000003 C 47.231397001324616 25.400272168287366 47.25022863341533 25.143691181051352 47.235 24.888 Z" stroke-linecap="round" />
</g>
<g transform="matrix(1 0 0 1 -0.04 1.65)" >
<linearGradient id="SVGID_wqXjoJct_Smz2qHhCrpj5b_2" gradientUnits="userSpaceOnUse" gradientTransform="matrix(1 0 0 1 0 0)" x1="0.036" y1="29.608" x2="47.624" y2="21.941">
<stop offset="0%" style="stop-color:rgb(241,156,139);stop-opacity: 1"/>
<stop offset="99.4%" style="stop-color:rgb(249,218,212);stop-opacity: 1"/>
</linearGradient>
<path style="stroke: none; stroke-width: 1; stroke-dasharray: none; stroke-linecap: butt; stroke-dashoffset: 0; stroke-linejoin: miter; stroke-miterlimit: 4; fill: url(#SVGID_wqXjoJct_Smz2qHhCrpj5b_2); fill-rule: nonzero; opacity: 0.5;" transform=" translate(-23.96, -25.65)" d="M 26.532 13.781 C 26.779717850988806 13.780148353407064 27.026807753661057 13.805963716372823 27.269 13.858 L 35.169 15.525 C 36.47390656549304 15.713906743771604 37.66154721351476 16.382422569361733 38.5 17.4 L 39.354 18.749 C 39.92172417527563 19.59769125716609 40.6072534656403 20.361335869419076 41.38999999999999 21.016999999999996 L 41.609 21.205 L 41.893 21.151999999999997 L 46.636 20.269999999999996 L 46.636 24.886999999999997 L 46.636 24.918999999999997 L 46.636 24.950999999999997 C 46.642761172266795 25.122533927086184 46.63305001804828 25.29432089653786 46.607 25.464 L 45.772999999999996 28.026 C 45.05499999999999 30.426 42.550999999999995 32.577 38.903 33.92 C 32.02530444756228 36.353869948801446 24.776458167142792 37.57204969903532 17.480999999999987 37.52 C 16.595 37.52 15.695999999999998 37.503 14.809999999999999 37.469 L 7.445999999999999 37.189 C 6.220145907464604 37.16251486952995 5.014811931164206 36.86903037926428 3.9139999999999997 36.329 C 2.775820427628718 35.81838238883916 1.8660569235757114 34.905770310213775 1.358999999999999 33.766 C 1.3269556697022458 33.67580448624265 1.2995859605898168 33.5840158276339 1.2769999999999988 33.491 L 1.2769999999999986 28.709 L 15.334999999999999 26.094 L 15.54 26.056 L 15.677 25.900000000000002 C 16.131782027884523 25.39139779328993 16.545732778640684 24.84771126604476 16.915000000000003 24.273999999999997 L 20.485 18.628 C 21.665083537741765 16.85323727361681 23.19664183923155 15.339376979166456 24.984999999999992 14.180000000000001 C 25.45184644326789 13.903329706541477 25.987546281236575 13.764637191857028 26.53 13.78 M 26.53 13.18 C 25.86728540454224 13.161901597935344 25.213437848649306 13.335520173584026 24.647 13.680000000000001 C 22.789814065308846 14.88626959488493 21.199173291413498 16.459894528237964 19.973 18.304000000000002 L 16.403000000000002 23.951 C 16.050484468500457 24.49776395294947 15.65560565916999 25.01602149271427 15.222000000000001 25.501 L 0.673 28.208 L 0.673 33.56 C 0.7035045245201004 33.698189362834405 0.7422402398806043 33.83443222375756 0.7890000000000006 33.968 C 1.3416962967892254 35.25464172803029 2.35638383893285 36.28752514381995 3.6330000000000013 36.86300000000001 C 4.812886262291109 37.44597050770032 6.106268186966828 37.76308631873853 7.422000000000001 37.79200000000001 L 14.786000000000001 38.07200000000001 Q 16.135 38.12400000000001 17.486 38.12400000000001 C 24.85028876371944 38.17378726851485 32.16718962810458 36.94313759945415 39.10999999999997 34.487000000000016 C 42.952 33.072 45.574 30.793000000000003 46.35 28.200000000000003 L 47.179 25.651000000000003 C 47.231397001324616 25.400272168287366 47.25022863341533 25.143691181051352 47.235 24.888 L 47.235 19.546000000000003 L 41.778999999999996 20.561000000000003 C 41.03972155392996 19.942889549248527 40.39222297538876 19.222661021167603 39.855999999999995 18.422000000000008 L 39.004999999999995 17.078000000000003 C 38.08467614066029 15.916731018152893 36.75601217455987 15.150290404598868 35.28999999999999 14.935000000000002 L 27.389999999999993 13.268000000000002 C 27.10699552398116 13.207603321483303 26.818376868472484 13.177434124043371 26.52899999999999 13.178 Z" stroke-linecap="round" />
</g>
<g transform="matrix(1 0 0 1 -0.05 -3.55)" >
<linearGradient id="SVGID_wqXjoJct_Smz2qHhCrpj5c_3" gradientUnits="userSpaceOnUse" gradientTransform="matrix(1 0 0 1 0 0)" x1="12.347" y1="16.824" x2="34.479" y2="27.733">
<stop offset="0%" style="stop-color:rgb(234,63,56);stop-opacity: 1"/>
<stop offset="100%" style="stop-color:rgb(212,51,45);stop-opacity: 1"/>
</linearGradient>
<path style="stroke: none; stroke-width: 1; stroke-dasharray: none; stroke-linecap: butt; stroke-dashoffset: 0; stroke-linejoin: miter; stroke-miterlimit: 4; fill: url(#SVGID_wqXjoJct_Smz2qHhCrpj5c_3); fill-rule: nonzero; opacity: 1;" transform=" translate(-23.95, -20.45)" d="M 47.193 20.039 L 45.959 22.79 C 45.187000000000005 25.378 42.893 27.13 39.048 28.549 C 31.307727808231032 31.495922249060676 23.069043917875202 32.91245015650427 14.788999999999987 32.72 L 8.289 32.302 L 7.965 32.255 L 7.4879999999999995 32.149 C 6.86932855887361 32.19248520012154 6.247725369958017 32.16598403880242 5.634999999999999 32.07 L 5.423 31.805 C 4.854527352332758 31.746802535975934 4.294760774811856 31.622633690842402 3.755 31.435 C 2.5263118826789053 30.880729247310278 1.5623108504620666 29.869012495969937 1.0680000000000014 28.615 C 1.031 28.515 0.727 28.4 0.7 28.3 C 0.867 28.269000000000002 0.6749999999999999 28.238 0.6749999999999999 28.2 C 0.5509999999999999 27.663999999999998 1.0859999999999999 27.166999999999998 1.975 26.98 C 8.682 25.549 13.946 22.48 16.41 18.593 L 19.981 12.956 C 21.20452762838497 11.244815310493314 22.775854720741506 9.811503284804399 24.592 8.75 C 25.430164486623198 8.23189818965336 26.433177693013068 8.049726987638106 27.4 8.24 L 35.135 9.549 L 35.297 9.587 C 36.763087071677376 9.795207473858767 38.091987310199016 10.561949590449844 39.006 11.726999999999997 L 39.864 13.071 C 40.65301959854864 14.245873922599902 41.66312607740009 15.255980401451358 42.837999999999994 16.045 C 43.02499999999999 16.182000000000002 43.224 16.306 43.422999999999995 16.431 L 46.259 18.2 C 46.673553951912155 18.430810851205997 46.99806824251968 18.794788334590983 47.18 19.233 C 47.27088490612765 19.49327999041423 47.27544368671968 19.775924387120494 47.193 20.039 Z" stroke-linecap="round" />
</g>
<g transform="matrix(1 0 0 1 4.34 -9.22)" >
<path style="stroke: none; stroke-width: 1; stroke-dasharray: none; stroke-linecap: butt; stroke-dashoffset: 0; stroke-linejoin: miter; stroke-miterlimit: 4; fill: rgb(188,27,27); fill-rule: nonzero; opacity: 1;" transform=" translate(-28.34, -14.78)" d="M 31.739 12.8 C 29.595148287948167 11.711961017620913 27.06085171205183 11.711961017620915 24.916999999999994 12.800000000000004 C 23.032 13.9 23.042 15.671000000000001 24.927000000000003 16.76 C 27.07798384094809 17.85504945054964 29.62301615905192 17.85504945054964 31.774000000000008 16.76 C 33.647000000000006 15.671000000000001 33.63700000000001 13.896 31.739000000000004 12.8" stroke-linecap="round" />
</g>
<g transform="matrix(1 0 0 1 3.82 -8.73)" >
<path style="stroke: none; stroke-width: 1; stroke-dasharray: none; stroke-linecap: butt; stroke-dashoffset: 0; stroke-linejoin: miter; stroke-miterlimit: 4; fill: rgb(242,181,175); fill-rule: nonzero; opacity: 1;" transform=" translate(-27.82, -15.27)" d="M 31.837 14.388 C 31.582609593583403 14.021723095175162 31.246391356216265 13.719742967519544 30.855 13.506 C 28.941116825764936 12.534985774969654 26.67888317423506 12.534985774969654 24.765 13.506 C 24.335952655797332 13.738942937729027 23.978745286063337 14.08473903621305 23.732 14.506000000000002 L 23.508 14.506 L 23.508 15.319 L 23.516 15.319 C 23.607642379176173 16.071141274524127 24.08428059007404 16.721309136130436 24.773999999999997 17.035 C 26.694085090013218 18.01249425449123 28.965914909986775 18.01249425449123 30.885999999999996 17.035 C 31.57195345343993 16.721317610702652 32.04224054848968 16.06982942975733 32.123999999999995 15.32 L 32.132 15.32 L 32.132 14.38 Z" stroke-linecap="round" />
</g>
<g transform="matrix(1 0 0 1 3.82 -9.52)" >
<path style="stroke: none; stroke-width: 1; stroke-dasharray: none; stroke-linecap: butt; stroke-dashoffset: 0; stroke-linejoin: miter; stroke-miterlimit: 4; fill: rgb(246,207,197); fill-rule: nonzero; opacity: 1;" transform=" translate(-27.82, -14.48)" d="M 30.855 12.712 C 28.941349354867153 11.740014011664117 26.678650645132848 11.740014011664117 24.765 12.712 C 23.083000000000002 13.689 23.092 15.274 24.774 16.245 C 26.693967806514376 17.222983026381318 28.966032193485628 17.222983026381318 30.886000000000003 16.245 C 32.557 15.274000000000001 32.548 13.689 30.855000000000004 12.712000000000002" stroke-linecap="round" />
</g>
<g transform="matrix(1 0 0 1 3.82 -9.52)" >
<path style="stroke: none; stroke-width: 1; stroke-dasharray: none; stroke-linecap: butt; stroke-dashoffset: 0; stroke-linejoin: miter; stroke-miterlimit: 4; fill: rgb(242,181,175); fill-rule: nonzero; opacity: 1;" transform=" translate(-27.82, -14.48)" d="M 29.579 13.453 C 28.469444904633626 12.890975271374376 27.158555095366374 12.890975271374376 26.049 13.453 C 25.61071598715696 13.603136975404329 25.316291545585713 14.01521392499088 25.316291545585713 14.4785 C 25.316291545585713 14.94178607500912 25.61071598715696 15.35386302459567 26.049 15.504 C 27.164640139567087 16.07299235408771 28.48535986043291 16.07299235408771 29.601 15.504 C 30.567999999999998 14.942 30.563 14.022 29.578 13.453 Z" stroke-linecap="round" />
</g>
<g transform="matrix(1 0 0 1 3.54 -9.41)" >
<path style="stroke: none; stroke-width: 1; stroke-dasharray: none; stroke-linecap: butt; stroke-dashoffset: 0; stroke-linejoin: miter; stroke-miterlimit: 4; fill: rgb(234,146,146); fill-rule: nonzero; opacity: 1;" transform=" translate(-27.54, -14.59)" d="M 29.771 15.385 C 29.718083396093398 15.433322286010215 29.659684922012158 15.475275212792717 29.597 15.51 C 28.480991514893752 16.07006456373227 27.16600848510625 16.07006456373227 26.05 15.510000000000002 C 25.080000000000002 14.937 25.067 14.017 26.05 13.457 C 26.19884804514678 13.376293711330689 26.352847696308153 13.305473915135002 26.510999999999996 13.245000000000003 C 25.711 13.817 25.788999999999998 14.651000000000002 26.698 15.174000000000001 C 27.650600589131958 15.660808046591388 28.760802153954153 15.737037311211461 29.771 15.385 Z" stroke-linecap="round" />
</g>
<g transform="matrix(1 0 0 1 10.64 -2.92)" >
<path style="stroke: none; stroke-width: 1; stroke-dasharray: none; stroke-linecap: butt; stroke-dashoffset: 0; stroke-linejoin: miter; stroke-miterlimit: 4; fill: rgb(254,246,238); fill-rule: nonzero; opacity: 0.5;" transform=" translate(-34.64, -21.08)" d="M 34.809 20.255 C 34.79468725318536 20.249286418928456 34.77998279143415 20.244607726553074 34.765 20.241 C 34.46657665125925 20.13962685179391 34.15759040351515 20.072528860970003 33.844 20.041 C 33.205622305674844 19.965096069723685 32.561790665939554 19.945687423619397 31.919999999999998 19.982999999999997 L 31.953000000000003 20.251 C 32.17100000000001 20.306 34.053000000000004 20.459 34.225 20.524 C 34.265 20.539 34.302 20.554000000000002 34.337 20.571 C 34.37200000000001 20.588 34.408 20.616000000000003 34.446000000000005 20.630000000000003 C 34.479000000000006 20.661 34.52 20.691000000000003 34.54600000000001 20.718000000000004 C 34.59325613807316 20.76842942883487 34.61782558219134 20.835995400159874 34.614000000000004 20.905000000000005 C 34.59752583373235 21.123725680237754 34.669585258843234 21.3399039555704 34.81400000000001 21.505000000000006 C 34.97684483668369 21.68148411392017 35.18044573117164 21.81538689444344 35.40700000000001 21.895000000000007 C 35.43900000000001 21.907000000000007 35.47200000000001 21.918000000000006 35.50700000000001 21.928000000000008 C 36.104493789446714 22.112448702577503 36.727845931245376 22.199231747237448 37.35300000000001 22.18500000000001 C 37.00100000000001 22.079000000000008 36.653000000000006 21.97400000000001 36.342000000000006 21.858000000000008 C 36.172000000000004 21.794000000000008 36.011 21.727000000000007 35.864000000000004 21.65800000000001 C 35.68553685417887 21.578132642057604 35.53158620860125 21.45214164287412 35.418000000000006 21.29300000000001 C 35.31650933424024 21.156638354760137 35.27662893403622 20.98406498660457 35.30800000000001 20.81700000000001 C 35.30091733017137 20.688167305100766 35.24430508099031 20.567060088498238 35.150000000000006 20.47900000000001 C 35.10136834312006 20.431631497714346 35.04994291326278 20.38721862647397 34.996 20.34600000000001 C 34.93800716863775 20.309740244642903 34.877136169624045 20.27830137702044 34.814 20.25200000000001" stroke-linecap="round" />
</g>
<g transform="matrix(1 0 0 1 18.84 -2.03)" >
<path style="stroke: none; stroke-width: 1; stroke-dasharray: none; stroke-linecap: butt; stroke-dashoffset: 0; stroke-linejoin: miter; stroke-miterlimit: 4; fill: rgb(254,246,238); fill-rule: nonzero; opacity: 0.5;" transform=" translate(-42.84, -21.97)" d="M 42.671 21.341 L 42.624 21.341 C 42.310202916964016 21.368485386991118 42.00054787267891 21.431557053649406 41.701 21.529 C 41.08568827938943 21.714537425984425 40.4877511029048 21.95344461345506 39.914 22.243000000000002 L 41.614000000000004 21.907 C 41.82302316039243 21.866878137658016 42.03396706407545 21.83750620170215 42.246 21.819 C 42.289 21.819 42.329 21.819 42.368 21.819 C 42.407000000000004 21.819 42.451 21.833 42.492000000000004 21.83 C 42.53372865512387 21.842157199273192 42.574785876195264 21.856510536720915 42.615 21.872999999999998 C 42.678646495197405 21.89975048494407 42.72853073167345 21.951442121292445 42.753 22.016 C 42.823978457066474 22.225334208097475 42.977036191959016 22.396802189403978 43.177 22.491 C 43.39713512482874 22.587222054004126 43.637385467007846 22.628407826949115 43.877 22.611 C 43.911 22.611 43.945 22.611 43.977000000000004 22.603 C 44.597869639361086 22.533235283240227 45.20354836166691 22.364428504448192 45.771 22.103 C 45.406 22.146 45.048 22.188000000000002 44.714 22.203000000000003 C 44.54111503745582 22.211922214939385 44.36788496254418 22.211922214939385 44.195 22.203000000000003 C 43.99926570310137 22.201401665891073 43.80756627750623 22.14717317973173 43.64 22.046000000000003 C 43.49276774960354 21.96094433159506 43.387398959419265 21.818642151036922 43.349000000000004 21.653000000000002 C 43.29032414478518 21.538171085756566 43.1902516208867 21.449892823603264 43.069 21.406000000000002 C 43.00546651745033 21.38250476649727 42.94070459423814 21.362475305709996 42.875 21.346000000000004 C 42.80876095170987 21.336490361287037 42.741917928523556 21.331811349663994 42.675 21.332000000000004" stroke-linecap="round" />
</g>
<g transform="matrix(1 0 0 1 9.17 -0.78)" >
<path style="stroke: none; stroke-width: 1; stroke-dasharray: none; stroke-linecap: butt; stroke-dashoffset: 0; stroke-linejoin: miter; stroke-miterlimit: 4; fill: rgb(254,246,238); fill-rule: nonzero; opacity: 0.5;" transform=" translate(-33.17, -23.22)" d="M 33.779 22.086 C 33.76053740568305 22.071749686526665 33.74116273889038 22.058721893338486 33.721000000000004 22.046999999999997 C 32.48996074172525 21.284420420749395 31.131595231396897 20.74988157404163 29.711000000000013 20.469 C 31.007062428661882 20.99019882207954 32.251770133835 21.630965510541444 33.428999999999995 22.382999999999992 C 33.542752840072964 22.50980029534995 33.58819961460122 22.683764588011393 33.551 22.849999999999998 C 32.861000000000004 24.593999999999998 35.888000000000005 25.749999999999996 36.63 25.967999999999996 C 35.853 25.459999999999997 33.756 24.431999999999995 34.253 23.112999999999996 C 34.28764304423664 22.81839630656305 34.19569420021878 22.522924329541226 34 22.3 C 33.93164132261492 22.222997303194393 33.857055795332585 22.151756418391084 33.777 22.087" stroke-linecap="round" />
</g>
<g transform="matrix(1 0 0 1 -4.45 0.13)" >
<path style="stroke: none; stroke-width: 1; stroke-dasharray: none; stroke-linecap: butt; stroke-dashoffset: 0; stroke-linejoin: miter; stroke-miterlimit: 4; fill: rgb(254,246,238); fill-rule: nonzero; opacity: 0.5;" transform=" translate(-19.55, -24.13)" d="M 20.114 23.51 L 20.084 23.473000000000003 C 19.432024051134604 22.75213356679859 18.656080956266955 22.154003708423964 17.793 21.707000000000004 C 18.531308758030413 22.285037669204808 19.213947065203865 22.930848995608724 19.832 23.635999999999996 C 19.881999662907027 23.738914179042265 19.879017819297957 23.85967884520971 19.824 23.96 C 19.054000000000002 24.96 20.789 26.268 21.224 26.545 C 21.077 26.373 21.452 25.935000000000002 21.224 25.651000000000003 C 20.824 25.151000000000003 19.864 24.742000000000004 20.224 24.260000000000005 C 20.301402086395974 24.07643959030463 20.297771021845417 23.868742698012838 20.214 23.688000000000006 C 20.185269708112575 23.62619564847832 20.151838193668674 23.56668755276818 20.113999999999997 23.510000000000005" stroke-linecap="round" />
</g>
<g transform="matrix(1 0 0 1 -6.5 -0.18)" >
<path style="stroke: none; stroke-width: 1; stroke-dasharray: none; stroke-linecap: butt; stroke-dashoffset: 0; stroke-linejoin: miter; stroke-miterlimit: 4; fill: rgb(254,246,238); fill-rule: nonzero; opacity: 0.5;" transform=" translate(-17.5, -23.82)" d="M 18.461 24.029 C 18.45274782498927 24.01866315199479 18.443721821894876 24.00896855607859 18.434 24 C 17.865496941591573 23.369368713784226 17.188004449645543 22.84634451000189 16.434 22.456 C 17.079635626485743 22.961138525684927 17.67657251109715 23.52560043676447 18.217 24.141999999999992 C 18.239314026247435 24.48966241706473 18.215100010887927 24.838747805164314 18.145000000000003 25.18 C 18.145000000000003 25.18 18.627000000000002 24.348 18.554000000000002 24.188 C 18.527951542574026 24.13329754943316 18.497518878571167 24.08079284340625 18.463 24.031" stroke-linecap="round" />
</g>
<g transform="matrix(1 0 0 1 8 -13.1)" >
<path style="stroke: none; stroke-width: 1; stroke-dasharray: none; stroke-linecap: butt; stroke-dashoffset: 0; stroke-linejoin: miter; stroke-miterlimit: 4; fill: rgb(254,246,238); fill-rule: nonzero; opacity: 0.5;" transform=" translate(-32, -10.9)" d="M 25.525 11.24 C 25.177999999999997 10.68 26.108999999999998 10.224 26.525 10.051 C 27.02775775506243 9.864057381579672 27.565312606817226 9.789311659335672 28.1 9.832 C 28.249000000000002 9.841000000000001 28.400000000000002 9.853000000000002 28.548000000000002 9.868 C 29.582443838751786 9.994143597824124 30.608555623006914 10.18113435577494 31.620999999999988 10.427999999999992 L 34.387 10.593 C 35.502 10.842 37.334 11.725999999999999 38.432 11.835 L 38.548 11.846 C 37.816826151782905 12.023445372432622 37.05338281317539 12.019669348725479 36.324 11.835 C 36.21 11.824000000000002 36.096 11.811000000000002 35.980999999999995 11.798 C 34.801726858436815 11.644519550532813 33.63116767861065 11.430234123259245 32.47399999999999 11.155999999999997 C 31.303999999999995 10.881 30.117999999999995 10.572000000000001 29.017999999999997 10.376000000000001 C 28.869999999999997 10.354000000000001 28.717999999999996 10.335 28.569999999999997 10.321000000000002 C 28.218316137686983 10.277890993817728 27.86268386231301 10.277890993817726 27.510999999999992 10.321000000000002 C 27.062999999999995 10.372000000000002 25.443999999999996 10.737000000000002 25.528999999999996 11.239" stroke-linecap="round" />
</g>
<g transform="matrix(1 0 0 1 -3.54 -5.77)" >
<path style="stroke: none; stroke-width: 1; stroke-dasharray: none; stroke-linecap: butt; stroke-dashoffset: 0; stroke-linejoin: miter; stroke-miterlimit: 4; fill: rgb(254,246,238); fill-rule: nonzero; opacity: 0.5;" transform=" translate(-20.46, -18.23)" d="M 22.342 22.192 C 22.33 22.155 22.305 22.118 22.291999999999998 22.080000000000002 C 21.86379088441342 21.04766753825264 21.37356332871131 20.042166741100694 20.823999999999998 19.068999999999996 L 18.676 16.632 C 18.846999999999998 16.246000000000002 19.032 15.883000000000001 19.02 15.858 C 18.87 15.584 18.72 15.311 18.584 15.037 L 19.057 14.265 C 19.194 14.502 19.331 14.738000000000001 19.456999999999997 14.975000000000001 C 19.644 15.286000000000001 19.817999999999998 15.609000000000002 19.991999999999997 15.920000000000002 C 20.57744892028586 16.953891799017985 21.109155912957128 18.017305784360516 21.584999999999997 19.105999999999995 C 21.621999999999996 19.218 21.671999999999997 19.318 21.709999999999997 19.430000000000003 C 22.10037084061624 20.300106580039635 22.315142783491115 21.23871434304659 22.342 22.191999999999997 Z" stroke-linecap="round" />
</g>
<g transform="matrix(1 0 0 1 7.83 3.22)" >
<path style="stroke: none; stroke-width: 1; stroke-dasharray: none; stroke-linecap: butt; stroke-dashoffset: 0; stroke-linejoin: miter; stroke-miterlimit: 4; fill: rgb(254,246,238); fill-rule: nonzero; opacity: 0.5;" transform=" translate(-31.83, -27.22)" d="M 36.541 30.019 C 36.356205703847266 29.612110932035694 36.0892861766824 29.247820250828546 35.757 28.948999999999998 C 35.598212883918535 28.802997093710676 35.43127853715784 28.666110929366905 35.257 28.538999999999998 C 35.170358731220624 28.477431029253708 35.078703843111 28.423240912926126 34.983 28.377 C 34.097234572316005 27.90926179618612 33.17322587982427 27.51784609371859 32.22099999999998 27.207 C 31.174999999999997 26.846 30.08 26.498 29.134999999999998 26.087 C 28.935 25.987 28.749 25.887 28.575 25.787 C 27.94990846063115 25.488813258478803 27.43883918701484 24.99529444068723 27.119 24.381 C 27.119 25.103 27.791 25.775 28.674 26.281 C 28.695791819027207 26.302038723010774 28.721198171441127 26.31897629128672 28.749 26.331 C 29.747413669122228 26.817089333873437 30.778595173592723 27.232769758877104 31.835 27.575000000000006 C 32.91670094805004 28.111717120501297 33.953389762478004 28.734733656397836 34.935 29.438000000000002 C 34.95826994328282 29.43874545688354 34.98055052687833 29.44758695831033 34.998 29.462999999999997 C 35.15056304886387 29.551563790499284 35.296002174433404 29.65186663571965 35.433 29.762999999999998 C 35.645 29.912 35.733 29.418 35.917 29.592 C 36.07909661489291 29.73706822265035 36.22893895209116 29.89527229741547 36.365 30.064999999999998 Z" stroke-linecap="round" />
</g>
<g transform="matrix(1 0 0 1 4.72 -4.71)" >
<path style="stroke: none; stroke-width: 1; stroke-dasharray: none; stroke-linecap: butt; stroke-dashoffset: 0; stroke-linejoin: miter; stroke-miterlimit: 4; fill: rgb(249,218,212); fill-rule: nonzero; opacity: 1;" transform=" translate(-28.72, -19.29)" d="M 46.259 18.2 C 46.259 18.2 40.314 16.775 37.539 18.119 C 36.087 18.829 33.765 19.541 28.272000000000002 21.905 C 27.081000000000003 22.418000000000003 24.088 25.32 20.998 26.699 C 18.002833336497496 27.985318435485514 14.814071396111807 28.762991061328382 11.563 29 C 9.696000000000002 29.05 15.177 27.991 20.418 25.652 C 22.968 24.514000000000003 25.506 21.881 27.028 21.216 C 31.532999999999998 19.246000000000002 37.42 17.966 35.567 11.539000000000001 C 35.423 11.039000000000001 34.155 10.381000000000002 32.456 10.084000000000001 L 35.29600000000001 9.584000000000001 C 36.76490675254032 9.762562930329258 38.11055181000191 10.494210495454531 39.059000000000005 11.629999999999997 L 39.917 12.974 C 40.844716210775864 14.339355153620893 42.059329327281574 15.48571240519232 43.476 16.333 Z" stroke-linecap="round" />
</g>
<g transform="matrix(1 0 0 1 -0.05 -3.53)" >
<path style="stroke: none; stroke-width: 1; stroke-dasharray: none; stroke-linecap: butt; stroke-dashoffset: 0; stroke-linejoin: miter; stroke-miterlimit: 4; fill: rgb(249,218,212); fill-rule: nonzero; opacity: 1;" transform=" translate(-23.95, -20.47)" d="M 26.666 7.969 C 25.93396663630003 7.962228761586003 25.215304212222108 8.16523094318213 24.595 8.554 C 22.774104043480435 9.632568562731983 21.200926050221582 11.082740869275122 19.977999999999998 12.810000000000002 L 19.057 14.265 L 18.584 15.037 L 16.407 18.5 C 13.943 22.42 8.679 25.519 1.9719999999999995 26.962 C 1.0879999999999996 27.149 0.5529999999999995 27.662 0.6769999999999996 28.194 C 0.6901598340111604 28.227914014243332 0.6979207487723756 28.263681708360238 0.7 28.3 C 0.7232841571924671 28.405181327360783 0.7523279013637121 28.509004366869483 0.7870000000000001 28.611 C 0.7999999999999999 28.636 0.8119999999999999 28.649 0.8119999999999999 28.673000000000002 C 0.898165499477039 28.88479171856823 1.002207960439761 29.08886214039222 1.1229999999999989 29.283 C 1.173 29.358 1.211 29.433 1.26 29.507 C 1.26 29.520000000000003 1.273 29.520000000000003 1.273 29.532 C 1.8875050285443282 30.370220267713453 2.6940556214183906 31.048861264013524 3.6250000000000027 31.511 C 4.252543360615371 31.825950749826614 4.917042089095112 32.061112079420056 5.6030000000000015 32.211 C 6.200701373752676 32.34223584011648 6.808633345190586 32.421531314651865 7.4200000000000035 32.448 L 7.893 32.46 L 7.904999999999999 32.46 L 14.786999999999999 32.921 Q 16.012 32.969 17.233999999999998 32.969 C 24.690041598492108 32.9718660936306 32.08949600472673 31.6747788925377 39.10000000000001 29.135999999999996 C 42.945 27.717 45.571 25.436 46.342 22.852 L 47.189 20.039 C 47.27188640859404 19.77530808227985 47.267326447920325 19.49188898809802 47.176 19.231 C 46.99406824251968 18.792788334590984 46.66955395191216 18.428810851206 46.255 18.198 L 43.418 16.431 C 43.217999999999996 16.306 43.018 16.182000000000002 42.833 16.045 C 42.385 16.645000000000003 42.41 17.240000000000002 43.504999999999995 17.725 C 46.727999999999994 19.119 45.321999999999996 21.134 44.687 22.565 C 44.052 23.996000000000002 40.086999999999996 28.738 29.543 30.565 C 24.70997798017149 31.373552132641418 19.818189590244238 31.779612379162558 14.918 31.779 C 11.883675924927527 31.86029344885823 8.849439810950953 31.61386653794412 5.867999999999995 31.044000000000008 C 5.540617702518914 30.95957751969987 5.234211584750532 30.808417168267468 4.967999999999998 30.6 C 3.858999999999998 29.737000000000002 1.7869999999999981 28.413 3.751999999999998 27.549 C 5.394999999999998 26.839 8.809999999999999 27.217 12.666999999999998 24.492 C 15.148845509792306 22.68400096979965 17.100034365741188 20.24311551248165 18.317 17.424 L 19.017 15.856 L 19.054 15.769 C 19.177999999999997 15.495000000000001 19.302999999999997 15.234 19.453999999999997 14.969 C 20.002149726898647 13.97314360851512 20.69389671245576 13.063393554445847 21.506999999999998 12.268999999999998 C 23.15 10.651999999999997 23.970999999999997 10.837999999999997 25.589 9.730999999999998 C 26.259445705341022 9.312395820522859 27.032629495790356 9.087431870750223 27.822999999999997 9.080999999999998 C 28.042311916002102 9.080379296542617 28.261113831167684 9.1021589665055 28.476 9.145999999999997 L 36.476 11.099999999999998 C 37.63128888399659 11.3054169755363 38.71510663770116 11.80206639395348 39.62499999999999 12.542999999999992 L 39.003 11.559999999999997 C 38.094632332732026 10.390076060001086 36.766533524034905 9.619685500702836 35.3 9.412 L 27.4 8.044 C 27.160668291678007 7.993326477010211 26.9166360758585 7.9681857954353985 26.671999999999997 7.968999999999999 Z" stroke-linecap="round" />
</g>
<g transform="matrix(1 0 0 1 -0.03 2.48)" >
<path style="stroke: none; stroke-width: 1; stroke-dasharray: none; stroke-linecap: butt; stroke-dashoffset: 0; stroke-linejoin: miter; stroke-miterlimit: 4; fill: rgb(255,238,230); fill-rule: nonzero; opacity: 1;" transform=" translate(-23.97, -26.48)" d="M 47.18 19.231 C 47.406 19.772000000000002 47.109 20.331000000000003 46.998 20.85 L 46.565999999999995 22.450000000000003 C 46.314822399676665 23.548374748549563 45.81538360767844 24.5746188416966 45.105999999999995 25.450000000000003 C 43.62209327441271 27.15177277843286 41.73968267378019 28.459393648300974 39.626999999999995 29.256000000000004 C 35.48735280749523 30.866282353297642 31.196505762366904 32.05691870545145 26.818999999999996 32.81 C 22.433518643226698 33.60689393905121 17.96919637133505 33.882473531925136 13.518999999999982 33.631000000000014 L 6.954999999999995 32.631 C 4.680022637275787 32.52293693362789 2.5746818755210015 31.396072757587472 1.2229999999999936 29.563 L 1.2119999999999946 29.529 C 1.2309999999999945 29.571 1.2169999999999945 29.567 1.2009999999999947 29.505 L 1.2099999999999946 29.535999999999998 C 1.052 29.275 0.936 28.975 0.8 28.7 L 0.8 28.684 L 0.8 28.675 L 0.78 28.621000000000002 L 0.78 28.621000000000002 L 0.7 28.3 L 0.7 28.3 L 0.677 28.19 L 0.7070000000000001 28.302 L 0.7070000000000001 28.302 L 0.807 28.608 L 0.807 28.608 L 0.8360000000000001 28.678 L 0.8360000000000001 28.67 L 0.8420000000000001 28.682000000000002 C 1 28.951 1.1300000000000001 29.226000000000003 1.312 29.482000000000003 L 1.322 29.514000000000003 C 1.304 29.473000000000003 1.322 29.476000000000003 1.336 29.539 L 1.323 29.5 C 2.748656231839617 31.187593835733026 4.8458218736906336 32.16080747971832 7.054999999999996 32.16 L 13.625 32.840999999999994 C 17.99394059865918 33.033349865770276 22.370858157096063 32.75136827647616 26.678999999999977 32 C 31.009162515236124 31.277323209335027 35.26632636648596 30.170279893563116 39.39999999999997 28.692000000000007 C 41.45866983275087 27.984712028016034 43.315778554543094 26.79009673718276 44.813 25.21 C 45.544991603442966 24.404047933543637 46.0818269998561 23.440549860695086 46.382000000000005 22.394000000000005 L 46.904 20.822000000000003 C 47.05 20.3 47.373 19.779 47.18 19.231 Z" stroke-linecap="round" />
</g>
</g>
</g>
</svg>