<svg width='24' height='24' viewBox='0 0 24 24' xmlns='http://www.w3.org/2000/svg' xmlns:xlink='http://www.w3.org/1999/xlink'><rect width='24' height='24' stroke='none' fill='#000000' opacity='0'/>


<g transform="matrix(0.16 0 0 0.16 12 12)" >
<g style="" >
<g transform="matrix(1 0 0 1 38 7.5)" id="Layer_1" >
<path style="stroke: none; stroke-width: 1; stroke-dasharray: none; stroke-linecap: butt; stroke-dashoffset: 0; stroke-linejoin: miter; stroke-miterlimit: 4; fill: rgb(68,75,84); fill-rule: nonzero; opacity: 1;" transform=" translate(-102, -71.5)" d="M 98 127 C 96.3 127 95 125.7 95 124 L 95 72.5 C 95 66.4 96.5 60.4 99.4 55.1 C 101.80000000000001 50.6 103 45.6 103 40.5 L 103 19 C 103 17.3 104.3 16 106 16 C 107.7 16 109 17.3 109 19 L 109 40.5 C 109 46.6 107.5 52.6 104.6 57.9 C 102.19999999999999 62.4 101 67.4 101 72.5 L 101 124 C 101 125.7 99.7 127 98 127 z" stroke-linecap="round" />
</g>
<g transform="matrix(1 0 0 1 28.5 -33)" id="Layer_1" >
<path style="stroke: none; stroke-width: 1; stroke-dasharray: none; stroke-linecap: butt; stroke-dashoffset: 0; stroke-linejoin: miter; stroke-miterlimit: 4; fill: rgb(113,194,255); fill-rule: nonzero; opacity: 1;" transform=" translate(-92.5, -31)" d="M 89 43 L 99 43 L 99 19 L 89 19 C 87.3 19 86 20.3 86 22 L 86 40 C 86 41.7 87.3 43 89 43 z" stroke-linecap="round" />
</g>
<g transform="matrix(1 0 0 1 -19 -1.5)" id="Layer_1" >
<polygon style="stroke: none; stroke-width: 1; stroke-dasharray: none; stroke-linecap: butt; stroke-dashoffset: 0; stroke-linejoin: miter; stroke-miterlimit: 4; fill: rgb(113,194,255); fill-rule: nonzero; opacity: 1;" points="-15,43.5 15,43.5 25,-33.5 25,-43.5 -25,-43.5 -25,-33.5 " />
</g>
<g transform="matrix(1 0 0 1 -13.76 -3)" id="Layer_1" >
<path style="stroke: none; stroke-width: 1; stroke-dasharray: none; stroke-linecap: butt; stroke-dashoffset: 0; stroke-linejoin: miter; stroke-miterlimit: 4; fill: rgb(255,255,255); fill-rule: nonzero; opacity: 1;" transform=" translate(-50.24, -61)" d="M 63.7 71 L 66.7 51 L 36.8 51 C 35 51 33.599999999999994 52.6 33.8 54.4 L 35.9 68.4 C 36.1 69.9 37.4 71 38.9 71 L 63.7 71 z" stroke-linecap="round" />
</g>
<g transform="matrix(1 0 0 1 -19 -40)" id="Layer_1" >
<rect style="stroke: none; stroke-width: 1; stroke-dasharray: none; stroke-linecap: butt; stroke-dashoffset: 0; stroke-linejoin: miter; stroke-miterlimit: 4; fill: rgb(255,255,255); fill-rule: nonzero; opacity: 1;" x="-25" y="-5" rx="0" ry="0" width="50" height="10" />
</g>
<g transform="matrix(1 0 0 1 -19 -2.99)" id="Layer_1" >
<path style="stroke: none; stroke-width: 1; stroke-dasharray: none; stroke-linecap: butt; stroke-dashoffset: 0; stroke-linejoin: miter; stroke-miterlimit: 4; fill: rgb(68,75,84); fill-rule: nonzero; opacity: 1;" transform=" translate(-45, -61.01)" d="M 60 106 C 59.9 106 59.7 106 59.6 106 C 58 105.8 56.800000000000004 104.3 57 102.6 L 67 28.799999999999997 L 67 22 L 23 22 L 23 28.8 L 33 102.6 C 33.2 104.19999999999999 32.1 105.8 30.4 106 C 28.799999999999997 106.2 27.2 105.1 27 103.4 L 17 29.400000000000006 C 17 29.300000000000004 17 29.100000000000005 17 29.000000000000007 L 17 19 C 17 17.3 18.3 16 20 16 L 70 16 C 71.7 16 73 17.3 73 19 L 73 29 C 73 29.1 73 29.3 73 29.4 L 63 103.4 C 62.8 104.9 61.5 106 60 106 z" stroke-linecap="round" />
</g>
<g transform="matrix(1 0 0 1 -19 55)" id="Layer_1" >
<path style="stroke: none; stroke-width: 1; stroke-dasharray: none; stroke-linecap: butt; stroke-dashoffset: 0; stroke-linejoin: miter; stroke-miterlimit: 4; fill: rgb(68,75,84); fill-rule: nonzero; opacity: 1;" transform=" translate(-45, -119)" d="M 60 111 L 30 111 C 28.3 111 27 112.3 27 114 L 27 124 C 27 125.7 28.3 127 30 127 L 60 127 C 61.7 127 63 125.7 63 124 L 63 114 C 63 112.4 61.7 111 60 111 z" stroke-linecap="round" />
</g>
</g>
</g>
</svg>