<svg width='24' height='24' viewBox='0 0 24 24' xmlns='http://www.w3.org/2000/svg' xmlns:xlink='http://www.w3.org/1999/xlink'><rect width='24' height='24' stroke='none' fill='#000000' opacity='0'/>


<g transform="matrix(0.2 0 0 0.2 12 12)" >
<g style="" >
<g transform="matrix(1 0 0 1 12 -11)" >
<path style="stroke: none; stroke-width: 1; stroke-dasharray: none; stroke-linecap: butt; stroke-dashoffset: 0; stroke-linejoin: miter; stroke-miterlimit: 4; fill: rgb(183,119,72); fill-rule: nonzero; opacity: 1;" transform=" translate(-62, -39)" d="M 44.161 61 C 40.992000000000004 61 40.652 58.194 40.652 58.082 C 40.539 57.857 36.352 42.255 50.725 28 C 59.892 18.908 68.834 17 74.719 17 C 78.67999999999999 17 81.05699999999999 17.898 81.05699999999999 17.898 L 81.05699999999999 17.898 C 81.05699999999999 17.898 84.67899999999999 19.918 83.88599999999998 22.725 C 82.07499999999999 29.347 73.47399999999998 40.46 66.22999999999999 47.643 C 60.23199999999999 53.592 50.38499999999999 59.878 45.40499999999999 60.888 C 45.067 61 44.501 61 44.161 61 L 44.161 61 z" stroke-linecap="round" />
</g>
<g transform="matrix(1 0 0 1 11.02 -12)" >
<path style="stroke: none; stroke-width: 1; stroke-dasharray: none; stroke-linecap: butt; stroke-dashoffset: 0; stroke-linejoin: miter; stroke-miterlimit: 4; fill: rgb(31,33,43); fill-rule: nonzero; opacity: 1;" transform=" translate(-61.02, -38)" d="M 40.668 60 C 40.302 60 39.95 59.799 39.774 59.45 C 39.702 59.306000000000004 34.980000000000004 42.687 50.267 27.536 C 59.887 18.001 69.308 16 75.517 16 C 79.704 16 82.247 16.942 82.353 16.982 C 82.86999999999999 17.177 83.131 17.753999999999998 82.93599999999999 18.271 C 82.741 18.789 82.16199999999999 19.046 81.64699999999999 18.853 C 81.626 18.846 79.308 18 75.517 18 C 69.684 18 60.812 19.9 51.675999999999995 28.956 C 37.596 42.911 41.47 58.168 41.605 58.651 C 41.781 59.123000000000005 41.577999999999996 59.661 41.117999999999995 59.892 C 40.973 59.966 40.82 60 40.668 60 z" stroke-linecap="round" />
</g>
<g transform="matrix(1 0 0 1 0.5 4.5)" >
<path style="stroke: none; stroke-width: 1; stroke-dasharray: none; stroke-linecap: butt; stroke-dashoffset: 0; stroke-linejoin: miter; stroke-miterlimit: 4; fill: rgb(234,168,113); fill-rule: nonzero; opacity: 1;" transform=" translate(-50.5, -54.5)" d="M 19.539 92 C 17.19 92 14.953000000000001 91.104 13.163 89.425 C 13.051 89.201 12.492 87.746 14.394 85.843 C 15.513 84.724 29.272 71.06700000000001 44.038 56.291000000000004 C 61.265 39.05200000000001 80.05799999999999 20.470000000000006 81.73599999999999 18.679000000000002 C 83.19 17.224 84.085 17 84.644 17 C 85.09100000000001 17 85.31500000000001 17.224 85.31500000000001 17.224 C 87.10500000000002 19.015 88.00000000000001 21.254 88.00000000000001 23.717 C 88.00000000000001 26.179999999999996 87.10500000000002 28.418 85.31500000000001 30.098 L 25.915000000000013 89.314 C 24.237 91.104 22 92 19.539 92 z" stroke-linecap="round" />
</g>
<g transform="matrix(1 0 0 1 0.5 4.5)" >
<path style="stroke: none; stroke-width: 1; stroke-dasharray: none; stroke-linecap: butt; stroke-dashoffset: 0; stroke-linejoin: miter; stroke-miterlimit: 4; fill: rgb(31,33,43); fill-rule: nonzero; opacity: 1;" transform=" translate(-50.5, -54.5)" d="M 19.539 93 C 16.942 93 14.435000000000002 91.989 12.479000000000003 90.155 C 12.392000000000003 90.074 12.321000000000003 89.977 12.268000000000002 89.871 C 12.155000000000003 89.64399999999999 11.237000000000002 87.58699999999999 13.686000000000002 85.137 C 13.936000000000002 84.886 14.821000000000002 84.006 16.209000000000003 82.625 C 21.017000000000003 77.844 31.870000000000005 67.05199999999999 43.32900000000001 55.584 C 51.58500000000001 47.322 60.20100000000001 38.752 67.12 31.869000000000003 C 74.68100000000001 24.348000000000003 80.143 18.915000000000003 81.00500000000001 17.995000000000005 C 82.373 16.627 83.522 16 84.644 16 C 85.27900000000001 16 85.772 16.267 86.022 16.516 C 87.971 18.465999999999998 89 20.956 89 23.717 C 89 26.526999999999997 87.962 28.985 86 30.826 L 26.622 90.021 C 24.805 91.962 22.347 93 19.539 93 z M 14.023 88.857 C 15.597 90.26 17.499 91 19.539 91 C 21.78 91 23.733 90.181 25.186 88.63 L 84.60900000000001 29.388999999999996 C 86.181 27.914 87 25.96 87 23.717 C 87 21.502 86.221 19.582 84.684 18.006999999999998 C 83.955 18.012999999999998 83.069 18.758999999999997 82.443 19.386 C 81.579 20.308 76.106 25.752 68.53099999999999 33.287 C 61.613 40.169 53 48.737 44.745 56.998 C 33.284 68.467 22.429 79.262 17.62 84.044 C 16.234 85.422 15.351 86.3 15.101 86.551 C 13.939 87.713 13.959 88.549 14.023 88.857 z" stroke-linecap="round" />
</g>
<g transform="matrix(1 0 0 1 -0.5 -23.5)" >
<path style="stroke: none; stroke-width: 1; stroke-dasharray: none; stroke-linecap: butt; stroke-dashoffset: 0; stroke-linejoin: miter; stroke-miterlimit: 4; fill: rgb(31,33,43); fill-rule: nonzero; opacity: 1;" transform=" translate(-49.5, -26.5)" d="M 55 32.5 C 54.872 32.5 54.744 32.451 54.646 32.354 L 43.646 21.354 C 43.451 21.159 43.451 20.842 43.646 20.647 C 43.841 20.451999999999998 44.158 20.451999999999998 44.353 20.647 L 55.353 31.647 C 55.548 31.842 55.548 32.159 55.353 32.354 C 55.256 32.451 55.128 32.5 55 32.5 z" stroke-linecap="round" />
</g>
<g transform="matrix(1 0 0 1 5.5 -10.5)" >
<path style="stroke: none; stroke-width: 1; stroke-dasharray: none; stroke-linecap: butt; stroke-dashoffset: 0; stroke-linejoin: miter; stroke-miterlimit: 4; fill: rgb(31,33,43); fill-rule: nonzero; opacity: 1;" transform=" translate(-55.5, -39.5)" d="M 58.5 43 C 58.372 43 58.244 42.951 58.146 42.854 L 52.146 36.854 C 51.951 36.659 51.951 36.342 52.146 36.147 C 52.341 35.952 52.658 35.952 52.853 36.147 L 58.853 42.147 C 59.048 42.342 59.048 42.659 58.853 42.854 C 58.756 42.951 58.628 43 58.5 43 z" stroke-linecap="round" />
</g>
<g transform="matrix(1 0 0 1 0 -4)" >
<path style="stroke: none; stroke-width: 1; stroke-dasharray: none; stroke-linecap: butt; stroke-dashoffset: 0; stroke-linejoin: miter; stroke-miterlimit: 4; fill: rgb(31,33,43); fill-rule: nonzero; opacity: 1;" transform=" translate(-50, -46)" d="M 52.5 49 C 52.372 49 52.244 48.951 52.146 48.854 L 47.146 43.854 C 46.951 43.659 46.951 43.342 47.146 43.147 C 47.341 42.952 47.658 42.952 47.853 43.147 L 52.853 48.147 C 53.048 48.342 53.048 48.659 52.853 48.854 C 52.756 48.951 52.628 49 52.5 49 z" stroke-linecap="round" />
</g>
<g transform="matrix(1 0 0 1 12.5 -17.5)" >
<path style="stroke: none; stroke-width: 1; stroke-dasharray: none; stroke-linecap: butt; stroke-dashoffset: 0; stroke-linejoin: miter; stroke-miterlimit: 4; fill: rgb(31,33,43); fill-rule: nonzero; opacity: 1;" transform=" translate(-62.5, -32.5)" d="M 65.5 36 C 65.372 36 65.244 35.951 65.146 35.854 L 59.146 29.854 C 58.951 29.659 58.951 29.342 59.146 29.147 C 59.341 28.951999999999998 59.658 28.951999999999998 59.853 29.147 L 65.85300000000001 35.147 C 66.048 35.342 66.048 35.659 65.85300000000001 35.854 C 65.756 35.951 65.628 36 65.5 36 z" stroke-linecap="round" />
</g>
<g transform="matrix(1 0 0 1 19 -23)" >
<path style="stroke: none; stroke-width: 1; stroke-dasharray: none; stroke-linecap: butt; stroke-dashoffset: 0; stroke-linejoin: miter; stroke-miterlimit: 4; fill: rgb(31,33,43); fill-rule: nonzero; opacity: 1;" transform=" translate(-69, -27)" d="M 71.5 30 C 71.372 30 71.244 29.951 71.146 29.854 L 66.146 24.854 C 65.95100000000001 24.659 65.95100000000001 24.342 66.146 24.147 C 66.341 23.951999999999998 66.658 23.951999999999998 66.853 24.147 L 71.853 29.147 C 72.04799999999999 29.342 72.04799999999999 29.659 71.853 29.854 C 71.756 29.951 71.628 30 71.5 30 z" stroke-linecap="round" />
</g>
<g transform="matrix(1 0 0 1 25 -28)" >
<path style="stroke: none; stroke-width: 1; stroke-dasharray: none; stroke-linecap: butt; stroke-dashoffset: 0; stroke-linejoin: miter; stroke-miterlimit: 4; fill: rgb(31,33,43); fill-rule: nonzero; opacity: 1;" transform=" translate(-75, -22)" d="M 76.5 24 C 76.372 24 76.244 23.951 76.146 23.854 L 73.146 20.854 C 72.95100000000001 20.659 72.95100000000001 20.342 73.146 20.147 C 73.341 19.951999999999998 73.658 19.951999999999998 73.853 20.147 L 76.853 23.147 C 77.04799999999999 23.342 77.04799999999999 23.659 76.853 23.854 C 76.756 23.951 76.628 24 76.5 24 z" stroke-linecap="round" />
</g>
<g transform="matrix(1 0 0 1 -6 3)" >
<path style="stroke: none; stroke-width: 1; stroke-dasharray: none; stroke-linecap: butt; stroke-dashoffset: 0; stroke-linejoin: miter; stroke-miterlimit: 4; fill: rgb(31,33,43); fill-rule: nonzero; opacity: 1;" transform=" translate(-44, -53)" d="M 45.5 55 C 45.372 55 45.244 54.951 45.146 54.854 L 42.146 51.854 C 41.951 51.659 41.951 51.342 42.146 51.147 C 42.341 50.952 42.658 50.952 42.853 51.147 L 45.853 54.147 C 46.048 54.342 46.048 54.659 45.853 54.854 C 45.756 54.951 45.628 55 45.5 55 z" stroke-linecap="round" />
</g>
<g transform="matrix(1 0 0 1 -7 -17)" >
<path style="stroke: none; stroke-width: 1; stroke-dasharray: none; stroke-linecap: butt; stroke-dashoffset: 0; stroke-linejoin: miter; stroke-miterlimit: 4; fill: rgb(31,33,43); fill-rule: nonzero; opacity: 1;" transform=" translate(-43, -33)" d="M 48.5 39 C 48.372 39 48.244 38.951 48.146 38.854 L 37.146 27.854 C 36.951 27.659 36.951 27.342 37.146 27.147 C 37.341 26.951999999999998 37.658 26.951999999999998 37.853 27.147 L 48.853 38.147 C 49.048 38.342 49.048 38.659 48.853 38.854 C 48.756 38.951 48.628 39 48.5 39 z" stroke-linecap="round" />
</g>
<g transform="matrix(1 0 0 1 -11.5 -8.5)" >
<path style="stroke: none; stroke-width: 1; stroke-dasharray: none; stroke-linecap: butt; stroke-dashoffset: 0; stroke-linejoin: miter; stroke-miterlimit: 4; fill: rgb(31,33,43); fill-rule: nonzero; opacity: 1;" transform=" translate(-38.5, -41.5)" d="M 44 47.5 C 43.872 47.5 43.744 47.451 43.646 47.354 L 32.646 36.354 C 32.451 36.159 32.451 35.842 32.646 35.647 C 32.841 35.452 33.158 35.452 33.353 35.647 L 44.353 46.647 C 44.548 46.842 44.548 47.159 44.353 47.354 C 44.256 47.451 44.128 47.5 44 47.5 z" stroke-linecap="round" />
</g>
<g transform="matrix(1 0 0 1 -14.5 1)" >
<path style="stroke: none; stroke-width: 1; stroke-dasharray: none; stroke-linecap: butt; stroke-dashoffset: 0; stroke-linejoin: miter; stroke-miterlimit: 4; fill: rgb(31,33,43); fill-rule: nonzero; opacity: 1;" transform=" translate(-35.5, -51)" d="M 39.5 55.5 C 39.372 55.5 39.244 55.451 39.146 55.354 L 31.146 47.354 C 30.951 47.159 30.951 46.842 31.146 46.647 C 31.341 46.452 31.658 46.452 31.853 46.647 L 39.853 54.647 C 40.048 54.842 40.048 55.159 39.853 55.354 C 39.756 55.451 39.628 55.5 39.5 55.5 z" stroke-linecap="round" />
</g>
<g transform="matrix(1 0 0 1 7 -29)" >
<path style="stroke: none; stroke-width: 1; stroke-dasharray: none; stroke-linecap: butt; stroke-dashoffset: 0; stroke-linejoin: miter; stroke-miterlimit: 4; fill: rgb(31,33,43); fill-rule: nonzero; opacity: 1;" transform=" translate(-57, -21)" d="M 62.5 27 C 62.372 27 62.244 26.951 62.146 26.854 L 51.146 15.854 C 50.951 15.658999999999999 50.951 15.341999999999999 51.146 15.146999999999998 C 51.341 14.951999999999998 51.658 14.951999999999998 51.853 15.146999999999998 L 62.853 26.147 C 63.048 26.342 63.048 26.659 62.853 26.854 C 62.756 26.951 62.628 27 62.5 27 z" stroke-linecap="round" />
</g>
<g transform="matrix(1 0 0 1 15 -33.5)" >
<path style="stroke: none; stroke-width: 1; stroke-dasharray: none; stroke-linecap: butt; stroke-dashoffset: 0; stroke-linejoin: miter; stroke-miterlimit: 4; fill: rgb(31,33,43); fill-rule: nonzero; opacity: 1;" transform=" translate(-65, -16.5)" d="M 70 22 C 69.872 22 69.744 21.951 69.646 21.854 L 59.646 11.854 C 59.451 11.658999999999999 59.451 11.341999999999999 59.646 11.146999999999998 C 59.841 10.951999999999998 60.158 10.951999999999998 60.353 11.146999999999998 L 70.35300000000001 21.147 C 70.548 21.342 70.548 21.659 70.35300000000001 21.854 C 70.256 21.951 70.128 22 70 22 z" stroke-linecap="round" />
</g>
<g transform="matrix(1 0 0 1 24.5 -36.5)" >
<path style="stroke: none; stroke-width: 1; stroke-dasharray: none; stroke-linecap: butt; stroke-dashoffset: 0; stroke-linejoin: miter; stroke-miterlimit: 4; fill: rgb(31,33,43); fill-rule: nonzero; opacity: 1;" transform=" translate(-74.5, -13.5)" d="M 78.5 18 C 78.372 18 78.244 17.951 78.146 17.854 L 70.146 9.854 C 69.95100000000001 9.658999999999999 69.95100000000001 9.341999999999999 70.146 9.146999999999998 C 70.341 8.951999999999998 70.658 8.951999999999998 70.853 9.146999999999998 L 78.853 17.147 C 79.04799999999999 17.342 79.04799999999999 17.659 78.853 17.854 C 78.756 17.951 78.628 18 78.5 18 z" stroke-linecap="round" />
</g>
</g>
</g>
</svg>