<svg width='24' height='24' viewBox='0 0 24 24' xmlns='http://www.w3.org/2000/svg' xmlns:xlink='http://www.w3.org/1999/xlink'><rect width='24' height='24' stroke='none' fill='#000000' opacity='0'/>


<g transform="matrix(0.16 0 0 0.16 12 12)" >
<g style="" >
<g transform="matrix(1 0 0 1 0.2 2.5)" >
<path style="stroke: none; stroke-width: 1; stroke-dasharray: none; stroke-linecap: butt; stroke-dashoffset: 0; stroke-linejoin: miter; stroke-miterlimit: 4; fill: rgb(103,155,103); fill-rule: nonzero; opacity: 1;" transform=" translate(-64.2, -66.5)" d="M 82.5 121 L 45.9 121 C 42.6 121 40 118.4 40 115.1 L 40 57.099999999999994 C 40 49.8 41.8 46.39999999999999 44.9 44.39999999999999 L 52.8 39.099999999999994 C 55.9 36.99999999999999 57.699999999999996 33.599999999999994 57.699999999999996 29.899999999999995 L 57.699999999999996 21.599999999999994 L 55.3 21.599999999999994 L 55.3 12 L 73.1 12 L 73.1 21.4 L 70.69999999999999 21.4 L 70.69999999999999 29.7 C 70.69999999999999 33.4 72.49999999999999 36.9 75.6 38.9 L 83.5 44.199999999999996 C 86.6 46.3 88.4 49.699999999999996 88.4 56.89999999999999 L 88.4 114.89999999999999 C 88.4 118.4 85.8 121 82.5 121 z" stroke-linecap="round" />
</g>
<g transform="matrix(1 0 0 1 0.2 -2.7)" >
<path style="stroke: none; stroke-width: 1; stroke-dasharray: none; stroke-linecap: butt; stroke-dashoffset: 0; stroke-linejoin: miter; stroke-miterlimit: 4; fill: rgb(255,255,255); fill-rule: nonzero; opacity: 1;" transform=" translate(-64.2, -61.3)" d="M 42.7 110.6 L 85.7 110.6 L 85.7 63.1 C 85.7 57 80.8 52.1 74.7 52.1 L 53.7 52.1 C 47.6 52.1 42.7 57 42.7 63.1 L 42.7 110.6 L 42.7 110.6 z M 55.3 12 L 73.1 12 L 73.1 19.5 L 55.3 19.5 z" stroke-linecap="round" />
</g>
<g transform="matrix(1 0 0 1 12.3 6.2)" >
<path style="stroke: none; stroke-width: 1; stroke-dasharray: none; stroke-linecap: butt; stroke-dashoffset: 0; stroke-linejoin: miter; stroke-miterlimit: 4; fill: rgb(92,139,92); fill-rule: nonzero; opacity: 1;" transform=" translate(-76.3, -70.2)" d="M 83.5 44.2 L 75.6 38.900000000000006 C 74.8 38.400000000000006 74.1 37.800000000000004 73.5 37.10000000000001 C 71.7 35.10000000000001 70.7 32.400000000000006 70.7 29.70000000000001 L 70.7 21.40000000000001 L 73.10000000000001 21.40000000000001 L 73.10000000000001 19.50000000000001 L 64.30000000000001 19.50000000000001 C 64.30000000000001 25.20000000000001 64.4 32.20000000000001 64.20000000000002 32.70000000000001 C 64.20000000000002 40.40000000000001 70.60000000000002 44.10000000000001 70.60000000000002 44.10000000000001 C 72.90000000000002 45.70000000000001 74.00000000000003 48.00000000000001 74.30000000000003 52.10000000000001 L 74.70000000000003 52.10000000000001 C 80.80000000000003 52.10000000000001 85.70000000000003 57.00000000000001 85.70000000000003 63.10000000000001 L 85.70000000000003 110.60000000000001 L 74.5 110.60000000000001 L 74.5 114.80000000000001 C 74.5 118.30000000000001 71.9 120.9 68.6 120.9 L 82.5 120.9 C 85.8 120.9 88.4 118.30000000000001 88.4 114.80000000000001 L 88.4 56.9 C 88.4 49.7 86.6 46.3 83.5 44.2 z" stroke-linecap="round" />
</g>
<g transform="matrix(1 0 0 1 4.65 -48.25)" >
<path style="stroke: none; stroke-width: 1; stroke-dasharray: none; stroke-linecap: butt; stroke-dashoffset: 0; stroke-linejoin: miter; stroke-miterlimit: 4; fill: rgb(229,229,229); fill-rule: nonzero; opacity: 1;" transform=" translate(-68.65, -15.75)" d="M 73.1 12 L 64.19999999999999 12 C 64.19999999999999 12.6 64.19999999999999 15.8 64.29999999999998 19.5 L 73.09999999999998 19.5 L 73.09999999999998 12 z" stroke-linecap="round" />
</g>
<g transform="matrix(1 0 0 1 0.2 17.35)" >
<path style="stroke: none; stroke-width: 1; stroke-dasharray: none; stroke-linecap: butt; stroke-dashoffset: 0; stroke-linejoin: miter; stroke-miterlimit: 4; fill: rgb(212,236,219); fill-rule: nonzero; opacity: 1;" transform=" translate(-64.2, -81.35)" d="M 82.8 107.7 L 45.6 107.7 L 45.6 63.1 C 45.6 58.6 49.2 55 53.7 55 L 74.7 55 C 79.2 55 82.8 58.6 82.8 63.1 C 82.8 63.1 82.8 107.7 82.8 107.7 z M 48.6 104.7 L 79.7 104.7 L 79.7 63.1 C 79.7 60.300000000000004 77.4 58 74.60000000000001 58 L 53.60000000000001 58 C 50.80000000000001 58 48.50000000000001 60.3 48.50000000000001 63.1 L 48.6 104.7 z" stroke-linecap="round" />
</g>
<g transform="matrix(1 0 0 1 13.1 17.35)" >
<path style="stroke: none; stroke-width: 1; stroke-dasharray: none; stroke-linecap: butt; stroke-dashoffset: 0; stroke-linejoin: miter; stroke-miterlimit: 4; fill: rgb(229,229,229); fill-rule: nonzero; opacity: 1;" transform=" translate(-77.1, -81.35)" d="M 79.7 104.7 L 79.7 63.1 C 79.7 60.300000000000004 77.4 58 74.60000000000001 58 L 74.50000000000001 58 L 74.50000000000001 104.7 L 79.7 104.7 z" stroke-linecap="round" />
</g>
<g transform="matrix(1 0 0 1 15.95 17.35)" >
<path style="stroke: none; stroke-width: 1; stroke-dasharray: none; stroke-linecap: butt; stroke-dashoffset: 0; stroke-linejoin: miter; stroke-miterlimit: 4; fill: rgb(229,229,229); fill-rule: nonzero; opacity: 1;" transform=" translate(-79.95, -81.35)" d="M 74.7 52.1 L 74.3 52.1 C 74.39999999999999 53 74.39999999999999 53.9 74.39999999999999 55 L 74.6 55 C 79.1 55 82.69999999999999 58.6 82.69999999999999 63.1 L 82.69999999999999 107.7 L 74.39999999999999 107.7 L 74.39999999999999 110.60000000000001 L 85.6 110.60000000000001 L 85.6 63.1 C 85.7 57 80.8 52.1 74.7 52.1 z" stroke-linecap="round" />
</g>
<g transform="matrix(1 0 0 1 14.65 17.35)" >
<path style="stroke: none; stroke-width: 1; stroke-dasharray: none; stroke-linecap: butt; stroke-dashoffset: 0; stroke-linejoin: miter; stroke-miterlimit: 4; fill: rgb(191,216,198); fill-rule: nonzero; opacity: 1;" transform=" translate(-78.65, -81.35)" d="M 82.8 63.1 C 82.8 58.6 79.2 55 74.7 55 L 74.5 55 C 74.5 55.6 74.5 56.2 74.5 56.8 L 74.5 58 L 74.6 58 C 77.39999999999999 58 79.69999999999999 60.3 79.69999999999999 63.1 L 79.69999999999999 104.7 L 74.49999999999999 104.7 L 74.49999999999999 107.7 L 82.79999999999998 107.7 C 82.8 107.7 82.8 63.1 82.8 63.1 z" stroke-linecap="round" />
</g>
<g transform="matrix(1 0 0 1 0.2 2.5)" >
<path style="stroke: none; stroke-width: 1; stroke-dasharray: none; stroke-linecap: butt; stroke-dashoffset: 0; stroke-linejoin: miter; stroke-miterlimit: 4; fill: rgb(69,75,84); fill-rule: nonzero; opacity: 1;" transform=" translate(-64.2, -66.5)" d="M 82.5 124 L 45.9 124 C 41 124 37 120 37 115.1 L 37 57.099999999999994 C 37 49.39999999999999 38.9 44.699999999999996 43.3 41.89999999999999 L 51.199999999999996 36.69999999999999 C 53.4 35.19999999999999 54.8 32.69999999999999 54.8 29.99999999999999 L 54.8 24.69999999999999 C 53.5 24.399999999999988 52.4 23.19999999999999 52.4 21.79999999999999 L 52.4 12 C 52.4 10.3 53.699999999999996 9 55.4 9 L 73.2 9 C 74.9 9 76.2 10.3 76.2 12 L 76.2 21.4 C 76.2 22.799999999999997 75.2 24 73.8 24.299999999999997 L 73.8 29.599999999999998 C 73.8 32.3 75.1 34.8 77.3 36.3 L 85.2 41.599999999999994 C 89.5 44.49999999999999 91.4 49.199999999999996 91.4 56.8 L 91.4 114.8 C 91.4 120 87.5 124 82.5 124 z M 58.3 18.7 C 59.599999999999994 19 60.699999999999996 20.2 60.699999999999996 21.599999999999998 L 60.699999999999996 29.9 C 60.699999999999996 34.6 58.4 38.9 54.49999999999999 41.599999999999994 L 46.599999999999994 46.89999999999999 C 44.8 48 43 50.1 43 57.1 L 43 115.1 C 43 116.69999999999999 44.3 118 45.9 118 L 82.6 118 C 84.3 118 85.5 116.7 85.5 114.9 L 85.5 56.900000000000006 C 85.5 50.00000000000001 83.7 47.900000000000006 81.9 46.7 L 74 41.4 C 70.1 38.9 67.8 34.5 67.8 29.7 L 67.8 21.4 C 67.8 20 68.8 18.799999999999997 70.2 18.5 L 70.2 15 L 58.3 15 L 58.3 18.7 z" stroke-linecap="round" />
</g>
<g transform="matrix(1 0 0 1 -0.85 11.35)" >
<path style="stroke: none; stroke-width: 1; stroke-dasharray: none; stroke-linecap: butt; stroke-dashoffset: 0; stroke-linejoin: miter; stroke-miterlimit: 4; fill: rgb(241,101,112); fill-rule: nonzero; opacity: 1;" transform=" translate(-63.15, -75.35)" d="M 64.2 60.10000000000001 C 61.23469554256852 60.09999990820941 58.49464118969809 61.681970951039574 57.011988934484684 64.24999992583204 C 55.52933667927128 66.8180289006245 55.52933667927128 69.9819710993755 57.011988934484684 72.55000007416797 C 58.49464118969809 75.11802904896044 61.23469554256852 76.7000000917906 64.2 76.7 C 67.16530445743149 76.7000000917906 69.90535881030192 75.11802904896044 71.38801106551531 72.55000007416797 C 72.87066332072872 69.9819710993755 72.87066332072872 66.8180289006245 71.38801106551531 64.24999992583204 C 69.90535881030192 61.68197095103957 67.16530445743149 60.09999990820941 64.2 60.10000000000001 z M 51.8 80.7 L 74.5 80.7 L 74.5 90.60000000000001 L 51.8 90.60000000000001 z" stroke-linecap="round" />
</g>
<g transform="matrix(1 0 0 1 11.5 21.65)" >
<path style="stroke: none; stroke-width: 1; stroke-dasharray: none; stroke-linecap: butt; stroke-dashoffset: 0; stroke-linejoin: miter; stroke-miterlimit: 4; fill: rgb(216,91,101); fill-rule: nonzero; opacity: 1;" transform=" translate(-75.5, -85.65)" d="M 74.5 80.7 L 76.5 80.7 L 76.5 90.60000000000001 L 74.5 90.60000000000001 z" stroke-linecap="round" />
</g>
</g>
</g>
</svg>